<svg xmlns="http://www.w3.org/2000/svg" xmlns:xlink="http://www.w3.org/1999/xlink" width="320" zoomAndPan="magnify" viewBox="0 0 240 98.999996" height="132" preserveAspectRatio="xMidYMid meet" version="1.0"><defs><g/></defs><g fill="#ffffff" fill-opacity="1"><g transform="translate(82.076274, 52.874995)"><g><path d="M 6.703125 -13.203125 L 6.703125 -3.734375 C 6.703125 -2.441406 6.347656 -1.457031 5.640625 -0.78125 C 4.929688 -0.101562 3.914062 0.234375 2.59375 0.234375 C 2.238281 0.234375 1.890625 0.191406 1.546875 0.109375 C 1.210938 0.0234375 0.925781 -0.078125 0.6875 -0.203125 C 0.457031 -0.328125 0.25 -0.453125 0.0625 -0.578125 C -0.125 -0.703125 -0.265625 -0.804688 -0.359375 -0.890625 L -0.5 -1.03125 L 0.46875 -3.53125 C 1.09375 -2.9375 1.660156 -2.640625 2.171875 -2.640625 C 2.628906 -2.640625 3 -2.789062 3.28125 -3.09375 C 3.5625 -3.394531 3.703125 -3.863281 3.703125 -4.5 L 3.703125 -13.203125 Z M 6.703125 -13.203125 "/></g></g></g><g fill="#ffffff" fill-opacity="1"><g transform="translate(89.578471, 52.874995)"><g><path d="M 0.375 -6.609375 C 0.375 -8.515625 1.019531 -10.128906 2.3125 -11.453125 C 3.613281 -12.773438 5.1875 -13.4375 7.03125 -13.4375 C 8.875 -13.4375 10.4375 -12.773438 11.71875 -11.453125 C 13.007812 -10.140625 13.65625 -8.523438 13.65625 -6.609375 C 13.65625 -4.679688 13.019531 -3.054688 11.75 -1.734375 C 10.488281 -0.421875 8.914062 0.234375 7.03125 0.234375 C 5.09375 0.234375 3.5 -0.414062 2.25 -1.71875 C 1 -3.03125 0.375 -4.660156 0.375 -6.609375 Z M 3.609375 -6.609375 C 3.609375 -5.910156 3.710938 -5.273438 3.921875 -4.703125 C 4.140625 -4.140625 4.515625 -3.660156 5.046875 -3.265625 C 5.585938 -2.867188 6.25 -2.671875 7.03125 -2.671875 C 8.144531 -2.671875 8.988281 -3.050781 9.5625 -3.8125 C 10.132812 -4.582031 10.421875 -5.515625 10.421875 -6.609375 C 10.421875 -7.679688 10.128906 -8.601562 9.546875 -9.375 C 8.960938 -10.15625 8.125 -10.546875 7.03125 -10.546875 C 5.9375 -10.546875 5.09375 -10.15625 4.5 -9.375 C 3.90625 -8.601562 3.609375 -7.679688 3.609375 -6.609375 Z M 3.609375 -6.609375 "/></g></g></g><g fill="#ffffff" fill-opacity="1"><g transform="translate(103.607095, 52.874995)"><g><path d="M 3.96875 -8.1875 L 3.96875 0 L 0.953125 0 L 0.953125 -13.203125 L 3.96875 -13.203125 L 9.21875 -5.015625 L 9.25 -5.015625 L 9.25 -13.203125 L 12.25 -13.203125 L 12.25 0 L 9.25 0 L 4 -8.1875 Z M 3.96875 -8.1875 "/></g></g></g><g fill="#ffffff" fill-opacity="1"><g transform="translate(116.819916, 52.874995)"><g><path d="M 7.984375 -2.71875 C 8.441406 -2.71875 8.882812 -2.785156 9.3125 -2.921875 C 9.75 -3.066406 10.066406 -3.203125 10.265625 -3.328125 L 10.578125 -3.53125 L 11.859375 -0.96875 C 11.816406 -0.9375 11.753906 -0.894531 11.671875 -0.84375 C 11.597656 -0.789062 11.425781 -0.691406 11.15625 -0.546875 C 10.882812 -0.410156 10.59375 -0.285156 10.28125 -0.171875 C 9.976562 -0.0664062 9.570312 0.0234375 9.0625 0.109375 C 8.5625 0.191406 8.046875 0.234375 7.515625 0.234375 C 6.296875 0.234375 5.132812 -0.0625 4.03125 -0.65625 C 2.9375 -1.257812 2.050781 -2.085938 1.375 -3.140625 C 0.707031 -4.203125 0.375 -5.347656 0.375 -6.578125 C 0.375 -7.503906 0.566406 -8.394531 0.953125 -9.25 C 1.347656 -10.101562 1.875 -10.832031 2.53125 -11.4375 C 3.1875 -12.050781 3.953125 -12.535156 4.828125 -12.890625 C 5.703125 -13.253906 6.597656 -13.4375 7.515625 -13.4375 C 8.367188 -13.4375 9.15625 -13.332031 9.875 -13.125 C 10.59375 -12.925781 11.101562 -12.726562 11.40625 -12.53125 L 11.859375 -12.21875 L 10.578125 -9.65625 C 10.503906 -9.726562 10.390625 -9.804688 10.234375 -9.890625 C 10.085938 -9.984375 9.789062 -10.101562 9.34375 -10.25 C 8.894531 -10.40625 8.441406 -10.484375 7.984375 -10.484375 C 7.253906 -10.484375 6.601562 -10.363281 6.03125 -10.125 C 5.457031 -9.894531 5 -9.585938 4.65625 -9.203125 C 4.320312 -8.816406 4.066406 -8.398438 3.890625 -7.953125 C 3.710938 -7.515625 3.625 -7.066406 3.625 -6.609375 C 3.625 -5.609375 4 -4.707031 4.75 -3.90625 C 5.507812 -3.113281 6.585938 -2.71875 7.984375 -2.71875 Z M 7.984375 -2.71875 "/></g></g></g><g fill="#ffffff" fill-opacity="1"><g transform="translate(128.865028, 52.874995)"><g><path d="M 0.375 -6.609375 C 0.375 -8.515625 1.019531 -10.128906 2.3125 -11.453125 C 3.613281 -12.773438 5.1875 -13.4375 7.03125 -13.4375 C 8.875 -13.4375 10.4375 -12.773438 11.71875 -11.453125 C 13.007812 -10.140625 13.65625 -8.523438 13.65625 -6.609375 C 13.65625 -4.679688 13.019531 -3.054688 11.75 -1.734375 C 10.488281 -0.421875 8.914062 0.234375 7.03125 0.234375 C 5.09375 0.234375 3.5 -0.414062 2.25 -1.71875 C 1 -3.03125 0.375 -4.660156 0.375 -6.609375 Z M 3.609375 -6.609375 C 3.609375 -5.910156 3.710938 -5.273438 3.921875 -4.703125 C 4.140625 -4.140625 4.515625 -3.660156 5.046875 -3.265625 C 5.585938 -2.867188 6.25 -2.671875 7.03125 -2.671875 C 8.144531 -2.671875 8.988281 -3.050781 9.5625 -3.8125 C 10.132812 -4.582031 10.421875 -5.515625 10.421875 -6.609375 C 10.421875 -7.679688 10.128906 -8.601562 9.546875 -9.375 C 8.960938 -10.15625 8.125 -10.546875 7.03125 -10.546875 C 5.9375 -10.546875 5.09375 -10.15625 4.5 -9.375 C 3.90625 -8.601562 3.609375 -7.679688 3.609375 -6.609375 Z M 3.609375 -6.609375 "/></g></g></g><g fill="#ffffff" fill-opacity="1"><g transform="translate(142.893652, 52.874995)"><g><path d="M 3.96875 -13.203125 L 3.96875 -2.640625 L 8.515625 -2.640625 L 8.515625 0 L 0.953125 0 L 0.953125 -13.203125 Z M 3.96875 -13.203125 "/></g></g></g><g fill="#ffffff" fill-opacity="1"><g transform="translate(151.931486, 52.874995)"><g><path d="M 0.375 -6.609375 C 0.375 -8.515625 1.019531 -10.128906 2.3125 -11.453125 C 3.613281 -12.773438 5.1875 -13.4375 7.03125 -13.4375 C 8.875 -13.4375 10.4375 -12.773438 11.71875 -11.453125 C 13.007812 -10.140625 13.65625 -8.523438 13.65625 -6.609375 C 13.65625 -4.679688 13.019531 -3.054688 11.75 -1.734375 C 10.488281 -0.421875 8.914062 0.234375 7.03125 0.234375 C 5.09375 0.234375 3.5 -0.414062 2.25 -1.71875 C 1 -3.03125 0.375 -4.660156 0.375 -6.609375 Z M 3.609375 -6.609375 C 3.609375 -5.910156 3.710938 -5.273438 3.921875 -4.703125 C 4.140625 -4.140625 4.515625 -3.660156 5.046875 -3.265625 C 5.585938 -2.867188 6.25 -2.671875 7.03125 -2.671875 C 8.144531 -2.671875 8.988281 -3.050781 9.5625 -3.8125 C 10.132812 -4.582031 10.421875 -5.515625 10.421875 -6.609375 C 10.421875 -7.679688 10.128906 -8.601562 9.546875 -9.375 C 8.960938 -10.15625 8.125 -10.546875 7.03125 -10.546875 C 5.9375 -10.546875 5.09375 -10.15625 4.5 -9.375 C 3.90625 -8.601562 3.609375 -7.679688 3.609375 -6.609375 Z M 3.609375 -6.609375 "/></g></g></g><g fill="#ffffff" fill-opacity="1"><g transform="translate(165.96011, 52.874995)"><g><path d="M 3.96875 -8.1875 L 3.96875 0 L 0.953125 0 L 0.953125 -13.203125 L 3.96875 -13.203125 L 9.21875 -5.015625 L 9.25 -5.015625 L 9.25 -13.203125 L 12.25 -13.203125 L 12.25 0 L 9.25 0 L 4 -8.1875 Z M 3.96875 -8.1875 "/></g></g></g><g fill="#ffffff" fill-opacity="1"><g transform="translate(179.172931, 52.874995)"><g><path d="M 2.78125 -3.421875 C 3.289062 -3.421875 3.722656 -3.242188 4.078125 -2.890625 C 4.441406 -2.535156 4.625 -2.097656 4.625 -1.578125 C 4.625 -1.078125 4.441406 -0.648438 4.078125 -0.296875 C 3.722656 0.0546875 3.289062 0.234375 2.78125 0.234375 C 2.28125 0.234375 1.847656 0.0546875 1.484375 -0.296875 C 1.128906 -0.648438 0.953125 -1.078125 0.953125 -1.578125 C 0.953125 -2.097656 1.128906 -2.535156 1.484375 -2.890625 C 1.847656 -3.242188 2.28125 -3.421875 2.78125 -3.421875 Z M 2.78125 -3.421875 "/></g></g></g><g fill="#ffffff" fill-opacity="1"><g transform="translate(184.755587, 52.874995)"><g><path d="M 0.953125 -13.203125 L 4.78125 -13.203125 C 6.613281 -13.203125 8.179688 -12.570312 9.484375 -11.3125 C 10.785156 -10.0625 11.4375 -8.492188 11.4375 -6.609375 C 11.4375 -4.710938 10.785156 -3.132812 9.484375 -1.875 C 8.191406 -0.625 6.625 0 4.78125 0 L 0.953125 0 Z M 3.96875 -2.6875 L 4.4375 -2.6875 C 5.53125 -2.6875 6.425781 -3.054688 7.125 -3.796875 C 7.820312 -4.535156 8.175781 -5.46875 8.1875 -6.59375 C 8.1875 -7.707031 7.835938 -8.640625 7.140625 -9.390625 C 6.441406 -10.140625 5.539062 -10.515625 4.4375 -10.515625 L 3.96875 -10.515625 Z M 3.96875 -2.6875 "/></g></g></g><g fill="#ffffff" fill-opacity="1"><g transform="translate(196.560751, 52.874995)"><g><path d="M 8.515625 -13.203125 L 8.515625 -10.5625 L 3.96875 -10.5625 L 3.96875 -7.9375 L 8.3125 -7.9375 L 8.3125 -5.296875 L 3.96875 -5.296875 L 3.96875 -2.640625 L 8.515625 -2.640625 L 8.515625 0 L 0.953125 0 L 0.953125 -13.203125 Z M 8.515625 -13.203125 "/></g></g></g><g fill="#ffffff" fill-opacity="1"><g transform="translate(205.838521, 52.874995)"><g><path d="M 5.09375 0 L -0.453125 -13.203125 L 2.9375 -13.203125 L 6.265625 -4.53125 L 9.59375 -13.203125 L 12.984375 -13.203125 L 7.453125 0 Z M 5.09375 0 "/></g></g></g><path fill="#ffffff" d="M 69.269531 21.132812 C 67.941406 21.6875 66.550781 22.234375 66.175781 22.347656 C 65.804688 22.460938 65.371094 22.613281 65.210938 22.691406 C 64.941406 22.816406 64.933594 22.816406 65.113281 22.671875 C 65.238281 22.574219 65.367188 22.480469 65.5 22.386719 C 65.691406 22.261719 65.691406 22.257812 65.507812 22.050781 C 65.226562 21.742188 64.46875 21.566406 63.179688 21.511719 C 62.542969 21.488281 61.574219 21.4375 61.027344 21.40625 C 60.480469 21.371094 59.140625 21.375 58.046875 21.414062 L 56.0625 21.484375 L 56.195312 27.117188 L 54.699219 27.859375 L 53.207031 28.601562 L 53.183594 26.554688 C 53.171875 25.429688 53.132812 24.480469 53.09375 24.445312 C 53.058594 24.410156 52.136719 24.410156 51.046875 24.445312 C 49.957031 24.480469 47.0625 24.488281 44.617188 24.460938 C 42.171875 24.433594 39.695312 24.425781 39.117188 24.441406 L 38.0625 24.472656 L 38.121094 26.015625 C 38.15625 26.863281 38.15625 29.730469 38.121094 32.382812 L 38.058594 37.207031 L 36.734375 38.183594 C 36.003906 38.71875 35.15625 39.363281 34.847656 39.613281 C 30.8125 42.933594 27.566406 46.214844 25.9375 48.628906 C 24.871094 50.207031 24.199219 51.941406 24.101562 53.367188 C 24.03125 54.339844 24.039062 54.339844 24.90625 53.195312 C 26.824219 50.660156 28.578125 48.960938 31.65625 46.652344 C 34.300781 44.667969 35.03125 44.207031 39.542969 41.667969 C 41.382812 40.632812 47.324219 37.609375 47.519531 37.609375 C 47.539062 37.609375 48.234375 37.28125 49.070312 36.882812 C 53.148438 34.929688 58.660156 32.648438 65.742188 29.980469 C 67.183594 29.4375 70.597656 28.351562 71.382812 28.1875 C 71.746094 28.113281 72.050781 28.035156 72.058594 28.019531 C 72.066406 28.003906 72.0625 26.214844 72.046875 24.050781 C 72.019531 20.40625 72.003906 20.109375 71.851562 20.117188 C 71.761719 20.121094 70.601562 20.578125 69.269531 21.132812 M 68.253906 31.769531 C 68.070312 31.851562 67.320312 32.113281 66.585938 32.351562 C 65.121094 32.828125 63.574219 33.414062 62.164062 34.035156 C 61.570312 34.292969 60.972656 34.550781 60.375 34.804688 C 57.710938 35.929688 56.488281 36.484375 56.316406 36.652344 C 56.125 36.835938 56.121094 36.96875 56.121094 45.515625 C 56.121094 53.269531 56.105469 54.242188 55.964844 54.6875 C 55.207031 57.078125 53.472656 58.75 51.273438 59.21875 C 49.121094 59.671875 47.328125 59.125 45.714844 57.511719 C 45.039062 56.835938 44.800781 56.519531 44.484375 55.867188 C 43.914062 54.683594 43.785156 53.824219 43.734375 50.808594 C 43.710938 49.429688 43.675781 48.285156 43.65625 48.265625 C 43.546875 48.152344 41.019531 49.601562 39.714844 50.523438 C 39.226562 50.867188 38.585938 51.28125 38.292969 51.441406 C 37.996094 51.601562 37.144531 52.164062 36.398438 52.691406 C 35.65625 53.222656 34.527344 53.992188 33.894531 54.40625 C 32.359375 55.40625 32.195312 55.566406 32.195312 56.074219 C 32.195312 57.046875 33.097656 59.910156 33.96875 61.707031 C 36.101562 66.09375 39.28125 69.011719 44 70.910156 C 46.011719 71.71875 48.09375 72.125 50.222656 72.121094 C 51.582031 72.117188 52.378906 72.019531 53.707031 71.679688 C 59.722656 70.148438 63.859375 66.8125 66.636719 61.246094 C 66.875 60.769531 67.140625 60.179688 67.222656 59.941406 C 67.304688 59.703125 67.480469 59.214844 67.617188 58.859375 C 67.945312 58 68.515625 55.449219 68.636719 54.320312 C 68.773438 53.050781 68.828125 31.613281 68.695312 31.617188 C 68.640625 31.621094 68.441406 31.6875 68.253906 31.769531 M 52.640625 38.011719 C 48.355469 39.710938 41.730469 43.085938 37.945312 45.496094 C 37.335938 45.886719 36.726562 46.269531 36.109375 46.648438 C 34.871094 47.410156 31.640625 49.691406 30.453125 50.644531 C 26.765625 53.601562 24.4375 56.597656 24.066406 58.863281 C 23.953125 59.5625 23.953125 60.039062 24.066406 60.039062 C 24.117188 60.039062 24.429688 59.699219 24.761719 59.289062 C 26.777344 56.796875 28.808594 54.824219 30.671875 53.546875 C 31.164062 53.210938 32.195312 52.460938 32.96875 51.878906 C 33.738281 51.296875 34.828125 50.523438 35.386719 50.164062 C 36.898438 49.191406 38.410156 48.222656 39.929688 47.253906 C 43.101562 45.234375 47.773438 42.902344 51.878906 41.285156 L 53.144531 40.789062 L 53.207031 39.375 C 53.242188 38.59375 53.238281 37.925781 53.199219 37.890625 C 53.160156 37.851562 52.90625 37.90625 52.640625 38.011719 M 28.996094 57.992188 C 26.929688 59.773438 24.679688 62.515625 24.171875 63.878906 C 23.917969 64.554688 23.945312 64.792969 24.292969 64.914062 C 24.671875 65.046875 25.078125 64.800781 25.617188 64.117188 C 26.886719 62.511719 28.890625 60.609375 30.046875 59.910156 C 30.554688 59.605469 30.558594 59.601562 30.496094 59.214844 C 30.460938 59.003906 30.382812 58.453125 30.324219 57.992188 C 30.261719 57.53125 30.1875 57.128906 30.15625 57.097656 C 30.125 57.066406 29.601562 57.46875 28.996094 57.992188 " fill-opacity="1" fill-rule="evenodd"/></svg>