<svg xmlns="http://www.w3.org/2000/svg" xmlns:xlink="http://www.w3.org/1999/xlink" width="320" zoomAndPan="magnify" viewBox="0 0 240 98.999996" height="132" preserveAspectRatio="xMidYMid meet" version="1.0"><defs><g/></defs><g fill="#ffffff" fill-opacity="1"><g transform="translate(81.851204, 55.877997)"><g><path d="M 7.546875 -14.84375 L 7.546875 -4.1875 C 7.546875 -2.738281 7.144531 -1.632812 6.34375 -0.875 C 5.539062 -0.113281 4.398438 0.265625 2.921875 0.265625 C 2.523438 0.265625 2.132812 0.21875 1.75 0.125 C 1.363281 0.03125 1.035156 -0.0820312 0.765625 -0.21875 C 0.503906 -0.363281 0.269531 -0.503906 0.0625 -0.640625 C -0.144531 -0.785156 -0.296875 -0.910156 -0.390625 -1.015625 L -0.5625 -1.15625 L 0.515625 -3.984375 C 1.222656 -3.304688 1.867188 -2.96875 2.453125 -2.96875 C 2.960938 -2.96875 3.375 -3.140625 3.6875 -3.484375 C 4 -3.828125 4.15625 -4.351562 4.15625 -5.0625 L 4.15625 -14.84375 Z M 7.546875 -14.84375 "/></g></g></g><g fill="#ffffff" fill-opacity="1"><g transform="translate(90.287731, 55.877997)"><g><path d="M 0.40625 -7.4375 C 0.40625 -9.582031 1.140625 -11.398438 2.609375 -12.890625 C 4.078125 -14.378906 5.84375 -15.125 7.90625 -15.125 C 9.976562 -15.125 11.738281 -14.378906 13.1875 -12.890625 C 14.644531 -11.410156 15.375 -9.59375 15.375 -7.4375 C 15.375 -5.257812 14.660156 -3.429688 13.234375 -1.953125 C 11.804688 -0.472656 10.03125 0.265625 7.90625 0.265625 C 5.726562 0.265625 3.929688 -0.46875 2.515625 -1.9375 C 1.109375 -3.40625 0.40625 -5.238281 0.40625 -7.4375 Z M 4.0625 -7.4375 C 4.0625 -6.65625 4.179688 -5.941406 4.421875 -5.296875 C 4.660156 -4.660156 5.082031 -4.117188 5.6875 -3.671875 C 6.289062 -3.222656 7.03125 -3 7.90625 -3 C 9.164062 -3 10.113281 -3.429688 10.75 -4.296875 C 11.394531 -5.160156 11.71875 -6.207031 11.71875 -7.4375 C 11.71875 -8.644531 11.390625 -9.679688 10.734375 -10.546875 C 10.078125 -11.421875 9.132812 -11.859375 7.90625 -11.859375 C 6.675781 -11.859375 5.726562 -11.421875 5.0625 -10.546875 C 4.394531 -9.679688 4.0625 -8.644531 4.0625 -7.4375 Z M 4.0625 -7.4375 "/></g></g></g><g fill="#ffffff" fill-opacity="1"><g transform="translate(106.06349, 55.877997)"><g><path d="M 4.46875 -9.21875 L 4.46875 0 L 1.078125 0 L 1.078125 -14.84375 L 4.46875 -14.84375 L 10.375 -5.640625 L 10.40625 -5.640625 L 10.40625 -14.84375 L 13.78125 -14.84375 L 13.78125 0 L 10.40625 0 L 4.5 -9.21875 Z M 4.46875 -9.21875 "/></g></g></g><g fill="#ffffff" fill-opacity="1"><g transform="translate(120.921846, 55.877997)"><g><path d="M 8.984375 -3.0625 C 9.492188 -3.0625 9.992188 -3.140625 10.484375 -3.296875 C 10.972656 -3.453125 11.332031 -3.601562 11.5625 -3.75 L 11.890625 -3.984375 L 13.34375 -1.09375 C 13.289062 -1.0625 13.222656 -1.015625 13.140625 -0.953125 C 13.054688 -0.890625 12.859375 -0.773438 12.546875 -0.609375 C 12.242188 -0.453125 11.914062 -0.3125 11.5625 -0.1875 C 11.21875 -0.0703125 10.765625 0.03125 10.203125 0.125 C 9.640625 0.21875 9.054688 0.265625 8.453125 0.265625 C 7.078125 0.265625 5.769531 -0.0703125 4.53125 -0.75 C 3.300781 -1.425781 2.304688 -2.359375 1.546875 -3.546875 C 0.785156 -4.734375 0.40625 -6.015625 0.40625 -7.390625 C 0.40625 -8.441406 0.628906 -9.445312 1.078125 -10.40625 C 1.523438 -11.363281 2.113281 -12.179688 2.84375 -12.859375 C 3.582031 -13.546875 4.441406 -14.09375 5.421875 -14.5 C 6.410156 -14.914062 7.421875 -15.125 8.453125 -15.125 C 9.421875 -15.125 10.304688 -15.007812 11.109375 -14.78125 C 11.921875 -14.550781 12.492188 -14.320312 12.828125 -14.09375 L 13.34375 -13.75 L 11.890625 -10.875 C 11.804688 -10.945312 11.679688 -11.03125 11.515625 -11.125 C 11.347656 -11.226562 11.007812 -11.363281 10.5 -11.53125 C 10 -11.707031 9.492188 -11.796875 8.984375 -11.796875 C 8.171875 -11.796875 7.4375 -11.660156 6.78125 -11.390625 C 6.132812 -11.128906 5.625 -10.78125 5.25 -10.34375 C 4.875 -9.914062 4.585938 -9.453125 4.390625 -8.953125 C 4.191406 -8.453125 4.09375 -7.945312 4.09375 -7.4375 C 4.09375 -6.300781 4.515625 -5.285156 5.359375 -4.390625 C 6.203125 -3.503906 7.410156 -3.0625 8.984375 -3.0625 Z M 8.984375 -3.0625 "/></g></g></g><g fill="#ffffff" fill-opacity="1"><g transform="translate(134.467049, 55.877997)"><g><path d="M 0.40625 -7.4375 C 0.40625 -9.582031 1.140625 -11.398438 2.609375 -12.890625 C 4.078125 -14.378906 5.84375 -15.125 7.90625 -15.125 C 9.976562 -15.125 11.738281 -14.378906 13.1875 -12.890625 C 14.644531 -11.410156 15.375 -9.59375 15.375 -7.4375 C 15.375 -5.257812 14.660156 -3.429688 13.234375 -1.953125 C 11.804688 -0.472656 10.03125 0.265625 7.90625 0.265625 C 5.726562 0.265625 3.929688 -0.46875 2.515625 -1.9375 C 1.109375 -3.40625 0.40625 -5.238281 0.40625 -7.4375 Z M 4.0625 -7.4375 C 4.0625 -6.65625 4.179688 -5.941406 4.421875 -5.296875 C 4.660156 -4.660156 5.082031 -4.117188 5.6875 -3.671875 C 6.289062 -3.222656 7.03125 -3 7.90625 -3 C 9.164062 -3 10.113281 -3.429688 10.75 -4.296875 C 11.394531 -5.160156 11.71875 -6.207031 11.71875 -7.4375 C 11.71875 -8.644531 11.390625 -9.679688 10.734375 -10.546875 C 10.078125 -11.421875 9.132812 -11.859375 7.90625 -11.859375 C 6.675781 -11.859375 5.726562 -11.421875 5.0625 -10.546875 C 4.394531 -9.679688 4.0625 -8.644531 4.0625 -7.4375 Z M 4.0625 -7.4375 "/></g></g></g><g fill="#ffffff" fill-opacity="1"><g transform="translate(150.242808, 55.877997)"><g><path d="M 4.46875 -14.84375 L 4.46875 -2.96875 L 9.578125 -2.96875 L 9.578125 0 L 1.078125 0 L 1.078125 -14.84375 Z M 4.46875 -14.84375 "/></g></g></g><g fill="#ffffff" fill-opacity="1"><g transform="translate(160.406214, 55.877997)"><g><path d="M 0.40625 -7.4375 C 0.40625 -9.582031 1.140625 -11.398438 2.609375 -12.890625 C 4.078125 -14.378906 5.84375 -15.125 7.90625 -15.125 C 9.976562 -15.125 11.738281 -14.378906 13.1875 -12.890625 C 14.644531 -11.410156 15.375 -9.59375 15.375 -7.4375 C 15.375 -5.257812 14.660156 -3.429688 13.234375 -1.953125 C 11.804688 -0.472656 10.03125 0.265625 7.90625 0.265625 C 5.726562 0.265625 3.929688 -0.46875 2.515625 -1.9375 C 1.109375 -3.40625 0.40625 -5.238281 0.40625 -7.4375 Z M 4.0625 -7.4375 C 4.0625 -6.65625 4.179688 -5.941406 4.421875 -5.296875 C 4.660156 -4.660156 5.082031 -4.117188 5.6875 -3.671875 C 6.289062 -3.222656 7.03125 -3 7.90625 -3 C 9.164062 -3 10.113281 -3.429688 10.75 -4.296875 C 11.394531 -5.160156 11.71875 -6.207031 11.71875 -7.4375 C 11.71875 -8.644531 11.390625 -9.679688 10.734375 -10.546875 C 10.078125 -11.421875 9.132812 -11.859375 7.90625 -11.859375 C 6.675781 -11.859375 5.726562 -11.421875 5.0625 -10.546875 C 4.394531 -9.679688 4.0625 -8.644531 4.0625 -7.4375 Z M 4.0625 -7.4375 "/></g></g></g><g fill="#ffffff" fill-opacity="1"><g transform="translate(176.181974, 55.877997)"><g><path d="M 4.46875 -9.21875 L 4.46875 0 L 1.078125 0 L 1.078125 -14.84375 L 4.46875 -14.84375 L 10.375 -5.640625 L 10.40625 -5.640625 L 10.40625 -14.84375 L 13.78125 -14.84375 L 13.78125 0 L 10.40625 0 L 4.5 -9.21875 Z M 4.46875 -9.21875 "/></g></g></g><g fill="#ffffff" fill-opacity="1"><g transform="translate(191.040329, 55.877997)"><g><path d="M 3.125 -3.859375 C 3.707031 -3.859375 4.195312 -3.65625 4.59375 -3.25 C 5 -2.84375 5.203125 -2.351562 5.203125 -1.78125 C 5.203125 -1.21875 5 -0.734375 4.59375 -0.328125 C 4.195312 0.0664062 3.707031 0.265625 3.125 0.265625 C 2.5625 0.265625 2.078125 0.0664062 1.671875 -0.328125 C 1.273438 -0.734375 1.078125 -1.21875 1.078125 -1.78125 C 1.078125 -2.351562 1.273438 -2.84375 1.671875 -3.25 C 2.078125 -3.65625 2.5625 -3.859375 3.125 -3.859375 Z M 3.125 -3.859375 "/></g></g></g><g fill="#ffffff" fill-opacity="1"><g transform="translate(197.318248, 55.877997)"><g><path d="M 1.078125 -14.84375 L 5.375 -14.84375 C 7.445312 -14.84375 9.210938 -14.140625 10.671875 -12.734375 C 12.140625 -11.328125 12.875 -9.5625 12.875 -7.4375 C 12.875 -5.300781 12.144531 -3.523438 10.6875 -2.109375 C 9.226562 -0.703125 7.457031 0 5.375 0 L 1.078125 0 Z M 4.46875 -3.03125 L 4.984375 -3.03125 C 6.222656 -3.03125 7.234375 -3.445312 8.015625 -4.28125 C 8.804688 -5.113281 9.207031 -6.160156 9.21875 -7.421875 C 9.21875 -8.679688 8.820312 -9.726562 8.03125 -10.5625 C 7.25 -11.40625 6.234375 -11.828125 4.984375 -11.828125 L 4.46875 -11.828125 Z M 4.46875 -3.03125 "/></g></g></g><g fill="#ffffff" fill-opacity="1"><g transform="translate(210.593634, 55.877997)"><g><path d="M 9.578125 -14.84375 L 9.578125 -11.875 L 4.46875 -11.875 L 4.46875 -8.921875 L 9.359375 -8.921875 L 9.359375 -5.953125 L 4.46875 -5.953125 L 4.46875 -2.96875 L 9.578125 -2.96875 L 9.578125 0 L 1.078125 0 L 1.078125 -14.84375 Z M 9.578125 -14.84375 "/></g></g></g><g fill="#ffffff" fill-opacity="1"><g transform="translate(221.026857, 55.877997)"><g><path d="M 5.71875 0 L -0.5 -14.84375 L 3.3125 -14.84375 L 7.0625 -5.09375 L 10.796875 -14.84375 L 14.609375 -14.84375 L 8.390625 0 Z M 5.71875 0 "/></g></g></g><path fill="#ffffff" d="M 73.691406 10.878906 C 71.625 11.742188 69.457031 12.59375 68.875 12.769531 C 68.296875 12.945312 67.617188 13.1875 67.371094 13.300781 C 66.949219 13.5 66.9375 13.496094 67.21875 13.273438 C 67.414062 13.121094 67.617188 12.972656 67.820312 12.832031 C 68.117188 12.636719 68.121094 12.628906 67.832031 12.308594 C 67.394531 11.824219 66.214844 11.550781 64.207031 11.472656 C 63.214844 11.429688 61.707031 11.355469 60.855469 11.300781 C 60.003906 11.25 57.917969 11.253906 56.214844 11.316406 L 53.125 11.425781 L 53.226562 15.8125 L 53.332031 20.199219 L 51.003906 21.351562 L 48.675781 22.507812 L 48.640625 19.320312 C 48.621094 17.570312 48.558594 16.089844 48.503906 16.035156 C 48.445312 15.984375 47.011719 15.984375 45.3125 16.039062 C 43.617188 16.09375 39.109375 16.105469 35.300781 16.0625 C 31.492188 16.019531 27.636719 16.003906 26.734375 16.03125 L 25.09375 16.078125 L 25.1875 18.480469 C 25.238281 19.800781 25.238281 24.265625 25.183594 28.398438 L 25.089844 35.914062 L 23.023438 37.429688 C 21.886719 38.261719 20.5625 39.265625 20.085938 39.660156 C 13.800781 44.832031 8.75 49.941406 6.210938 53.699219 C 4.550781 56.15625 3.503906 58.855469 3.347656 61.078125 C 3.242188 62.59375 3.253906 62.589844 4.601562 60.808594 C 7.589844 56.863281 10.320312 54.214844 15.113281 50.621094 C 19.234375 47.53125 20.371094 46.8125 27.398438 42.859375 C 30.261719 41.246094 39.515625 36.535156 39.820312 36.535156 C 39.847656 36.535156 40.933594 36.027344 42.230469 35.40625 C 48.582031 32.367188 57.171875 28.808594 68.199219 24.65625 C 70.441406 23.808594 75.761719 22.121094 76.984375 21.867188 C 77.550781 21.746094 78.023438 21.628906 78.035156 21.601562 C 78.050781 21.578125 78.039062 18.792969 78.015625 15.417969 C 77.976562 9.746094 77.953125 9.285156 77.714844 9.296875 C 77.574219 9.300781 75.761719 10.015625 73.691406 10.878906 M 72.113281 27.445312 C 71.824219 27.574219 70.652344 27.980469 69.515625 28.347656 C 67.230469 29.089844 64.820312 30.007812 62.628906 30.96875 C 61.703125 31.375 60.773438 31.773438 59.84375 32.167969 C 55.6875 33.917969 53.785156 34.785156 53.519531 35.046875 C 53.222656 35.335938 53.21875 35.539062 53.21875 48.847656 C 53.214844 60.925781 53.191406 62.4375 52.96875 63.132812 C 51.792969 66.851562 49.09375 69.460938 45.664062 70.1875 C 42.316406 70.898438 39.523438 70.039062 37.007812 67.53125 C 35.957031 66.480469 35.582031 65.984375 35.09375 64.96875 C 34.203125 63.128906 34.003906 61.789062 33.925781 57.09375 C 33.890625 54.945312 33.835938 53.160156 33.804688 53.132812 C 33.628906 52.957031 29.699219 55.210938 27.667969 56.648438 C 26.90625 57.1875 25.910156 57.828125 25.449219 58.078125 C 24.988281 58.324219 23.664062 59.203125 22.503906 60.027344 C 21.34375 60.847656 19.589844 62.050781 18.601562 62.691406 C 16.214844 64.25 15.953125 64.503906 15.953125 65.289062 C 15.953125 66.808594 17.359375 71.269531 18.71875 74.066406 C 22.039062 80.898438 26.992188 85.441406 34.335938 88.394531 C 37.46875 89.65625 40.714844 90.289062 44.03125 90.28125 C 46.148438 90.277344 47.386719 90.121094 49.453125 89.597656 C 58.824219 87.210938 65.265625 82.011719 69.59375 73.347656 C 69.964844 72.601562 70.375 71.6875 70.503906 71.316406 C 70.628906 70.941406 70.90625 70.183594 71.117188 69.632812 C 71.625 68.292969 72.519531 64.320312 72.707031 62.5625 C 72.917969 60.582031 73.003906 27.199219 72.796875 27.207031 C 72.710938 27.210938 72.402344 27.316406 72.113281 27.445312 M 47.796875 37.164062 C 41.121094 39.808594 30.804688 45.0625 24.914062 48.820312 C 23.960938 49.425781 23.007812 50.023438 22.050781 50.613281 C 20.121094 51.800781 15.09375 55.355469 13.242188 56.835938 C 7.503906 61.441406 3.875 66.105469 3.296875 69.632812 C 3.121094 70.726562 3.117188 71.464844 3.296875 71.464844 C 3.371094 71.464844 3.859375 70.941406 4.378906 70.296875 C 7.519531 66.417969 10.683594 63.347656 13.585938 61.359375 C 14.347656 60.835938 15.957031 59.664062 17.15625 58.757812 C 18.359375 57.851562 20.054688 56.652344 20.921875 56.089844 C 23.277344 54.574219 25.636719 53.0625 28 51.558594 C 32.941406 48.414062 40.214844 44.777344 46.605469 42.265625 L 48.578125 41.488281 L 48.679688 39.285156 C 48.734375 38.074219 48.726562 37.03125 48.664062 36.972656 C 48.601562 36.914062 48.210938 37 47.796875 37.164062 M 10.972656 68.277344 C 7.753906 71.050781 4.253906 75.320312 3.457031 77.445312 C 3.066406 78.496094 3.109375 78.867188 3.652344 79.058594 C 4.238281 79.265625 4.871094 78.882812 5.714844 77.816406 C 7.691406 75.316406 10.8125 72.351562 12.609375 71.269531 C 13.402344 70.789062 13.40625 70.785156 13.308594 70.183594 C 13.253906 69.855469 13.132812 68.996094 13.039062 68.277344 C 12.945312 67.558594 12.828125 66.933594 12.777344 66.882812 C 12.730469 66.835938 11.917969 67.460938 10.972656 68.277344 " fill-opacity="1" fill-rule="evenodd"/></svg>